<svg version="1.1" id="Layer_1" xmlns="http://www.w3.org/2000/svg" xmlns:xlink="http://www.w3.org/1999/xlink" x="0px" y="0px"
	 width="100%" viewBox="0 0 500 500" enable-background="new 0 0 500 500" xml:space="preserve">
<path fill="#060A30" opacity="1.000000" stroke="none" 
	d="
M219.000000,501.000000 
	C146.000015,501.000000 73.500038,501.000000 1.000039,501.000000 
	C1.000026,334.333405 1.000026,167.666779 1.000013,1.000128 
	C167.666565,1.000086 334.333130,1.000086 500.999756,1.000043 
	C500.999847,167.666534 500.999847,334.333069 500.999939,500.999817 
	C407.166656,501.000000 313.333344,501.000000 219.000000,501.000000 
M312.925995,408.422485 
	C343.763245,392.742126 366.336975,369.239410 380.368622,337.531555 
	C388.343323,319.510834 381.728455,296.956604 365.597382,288.028625 
	C343.601654,275.854767 319.256866,283.957825 308.923798,306.892242 
	C292.375916,343.620575 248.020325,356.131775 214.664444,333.718140 
	C203.108521,325.953125 196.332321,314.787872 190.112106,302.860718 
	C183.117584,289.448853 171.693802,282.558868 156.523834,282.524963 
	C140.817429,282.489807 128.840073,289.424713 121.654289,303.404144 
	C115.065353,316.222443 116.695129,329.087372 122.970291,341.736755 
	C143.853989,383.833618 177.073074,410.387817 223.109268,419.836243 
	C253.835815,426.142517 283.764679,422.316803 312.925995,408.422485 
M112.869003,240.649994 
	C125.551506,250.416336 140.016159,253.423965 155.388245,250.348312 
	C191.475677,243.127899 208.437744,200.709427 187.718582,170.287750 
	C168.963135,142.749313 129.676849,139.635147 107.000153,163.889328 
	C86.038254,186.309402 88.332085,219.101440 112.869003,240.649994 
M318.492188,179.937698 
	C314.162262,179.941177 309.827179,180.076904 305.504028,179.907806 
	C301.805359,179.763138 300.443451,181.444260 300.469849,184.973557 
	C300.542053,194.631851 300.561737,204.292038 300.444702,213.949554 
	C300.397766,217.825958 302.002258,219.222107 305.857269,219.106461 
	C313.011810,218.891861 320.186829,219.273712 327.335358,218.976059 
	C331.849731,218.788086 333.104950,220.558121 332.937531,224.828217 
	C332.657257,231.977982 332.988251,239.149704 332.831238,246.307144 
	C332.750946,249.966507 334.152832,251.310623 337.821289,251.243607 
	C347.310852,251.070267 356.811676,250.975647 366.295532,251.262604 
	C370.829407,251.399811 372.075714,249.581406 371.961884,245.401688 
	C371.767120,238.246933 372.089386,231.078583 371.918671,223.922501 
	C371.830536,220.228683 373.236328,218.887497 376.884369,218.975327 
	C384.041321,219.147568 391.212219,218.834457 398.363831,219.094666 
	C402.622467,219.249588 404.348969,217.923950 404.218323,213.447037 
	C403.941467,203.962143 403.967834,194.461807 404.150665,184.973206 
	C404.228241,180.946350 402.555542,179.778992 398.792542,179.885254 
	C391.970093,180.077896 385.138153,179.938980 378.310181,179.929504 
	C372.205261,179.921021 371.946259,179.676895 371.913452,173.365173 
	C371.877960,166.537476 371.785522,159.706970 371.938660,152.882660 
	C372.019562,149.274872 370.633301,147.735046 366.983521,147.772583 
	C357.158936,147.873596 347.331696,147.879211 337.507416,147.762543 
	C334.026611,147.721222 332.746307,149.233490 332.827484,152.568695 
	C332.940887,157.228775 332.838501,161.893951 332.839142,166.556946 
	C332.840973,180.061493 332.843079,180.061493 318.492188,179.937698 
z"/>
<path fill="#D62628" opacity="1.000000" stroke="none" 
	d="
M312.589050,408.587341 
	C283.764679,422.316803 253.835815,426.142517 223.109268,419.836243 
	C177.073074,410.387817 143.853989,383.833618 122.970291,341.736755 
	C116.695129,329.087372 115.065353,316.222443 121.654289,303.404144 
	C128.840073,289.424713 140.817429,282.489807 156.523834,282.524963 
	C171.693802,282.558868 183.117584,289.448853 190.112106,302.860718 
	C196.332321,314.787872 203.108521,325.953125 214.664444,333.718140 
	C248.020325,356.131775 292.375916,343.620575 308.923798,306.892242 
	C319.256866,283.957825 343.601654,275.854767 365.597382,288.028625 
	C381.728455,296.956604 388.343323,319.510834 380.368622,337.531555 
	C366.336975,369.239410 343.763245,392.742126 312.589050,408.587341 
z"/>
<path fill="#D52628" opacity="1.000000" stroke="none" 
	d="
M112.602676,240.412170 
	C88.332085,219.101440 86.038254,186.309402 107.000153,163.889328 
	C129.676849,139.635147 168.963135,142.749313 187.718582,170.287750 
	C208.437744,200.709427 191.475677,243.127899 155.388245,250.348312 
	C140.016159,253.423965 125.551506,250.416336 112.602676,240.412170 
z"/>
<path fill="#D42729" opacity="1.000000" stroke="none" 
	d="
M318.988403,179.940689 
	C332.843079,180.061493 332.840973,180.061493 332.839142,166.556946 
	C332.838501,161.893951 332.940887,157.228775 332.827484,152.568695 
	C332.746307,149.233490 334.026611,147.721222 337.507416,147.762543 
	C347.331696,147.879211 357.158936,147.873596 366.983521,147.772583 
	C370.633301,147.735046 372.019562,149.274872 371.938660,152.882660 
	C371.785522,159.706970 371.877960,166.537476 371.913452,173.365173 
	C371.946259,179.676895 372.205261,179.921021 378.310181,179.929504 
	C385.138153,179.938980 391.970093,180.077896 398.792542,179.885254 
	C402.555542,179.778992 404.228241,180.946350 404.150665,184.973206 
	C403.967834,194.461807 403.941467,203.962143 404.218323,213.447037 
	C404.348969,217.923950 402.622467,219.249588 398.363831,219.094666 
	C391.212219,218.834457 384.041321,219.147568 376.884369,218.975327 
	C373.236328,218.887497 371.830536,220.228683 371.918671,223.922501 
	C372.089386,231.078583 371.767120,238.246933 371.961884,245.401688 
	C372.075714,249.581406 370.829407,251.399811 366.295532,251.262604 
	C356.811676,250.975647 347.310852,251.070267 337.821289,251.243607 
	C334.152832,251.310623 332.750946,249.966507 332.831238,246.307144 
	C332.988251,239.149704 332.657257,231.977982 332.937531,224.828217 
	C333.104950,220.558121 331.849731,218.788086 327.335358,218.976059 
	C320.186829,219.273712 313.011810,218.891861 305.857269,219.106461 
	C302.002258,219.222107 300.397766,217.825958 300.444702,213.949554 
	C300.561737,204.292038 300.542053,194.631851 300.469849,184.973557 
	C300.443451,181.444260 301.805359,179.763138 305.504028,179.907806 
	C309.827179,180.076904 314.162262,179.941177 318.988403,179.940689 
z"/>
</svg>